. 
  
http://www.torrenting.com/        :     Greatest Movie Tracker on The Net!!!
 
http://www.Torrenting.com          :     Once & For all ;)


               www . Torrenting . Com 

(((((((((((((= Enjoy No RAR releases =))))))))))))))))))))


...................................NFO:....................................

.The.Frankestein.Syndrome.2010.DVDSCR.XviD-XtremE

[img]http://img716.imageshack.us/img716/1772/frankensteinsyndrome1.jpg[/img]

IMDB Link
http://www.imdb.com/title/tt1337686/


Trailer

Description:

A group of researchers conducting illegal stem cell research discover a cell anomaly that has the potential to regenerate dead tissue. Unable to conduct legal human trials, the researchers turn to corpses to test their serum. 
Cast:

Director:
Sean Tretta
Writer: Mary Shelley (novel), Sean Tretta (screenplay)
Stars:
Tiffany Shepis


Screenshots
[img]http://www.grinshare.com/img/JNJBIH.jpg[/img]
[img]http://www.grinshare.com/img/DWB531.jpg[/img]
[img]http://www.grinshare.com/img/FR81RH.jpg[/img]
[img]http://www.grinshare.com/img/Z1VGEM.jpg[/img]
[img]http://www.grinshare.com/img/1TE0N0.jpg[/img]


General
Complete name                    : The.Frankestein.Syndrome.2010.DVDSCR.XviD-XtremE.avi
Format                           : AVI
Format/Info                      : Audio Video Interleave
File size                        : 1.05 GiB
Duration                         : 1h 29mn
Overall bit rate                 : 1 687 Kbps
Writing application              : VirtualDubMod 1.5.4.1 (build 2178/release)
Writing library                  : VirtualDubMod build 2178/release

Video
ID                               : 0
Format                           : MPEG-4 Visual
Format profile                   : Advanced Simple@L5
Format settings, BVOP            : No
Format settings, QPel            : No
Format settings, GMC             : No warppoints
Format settings, Matrix          : Custom
Codec ID                         : XVID
Codec ID/Hint                    : XviD
Duration                         : 1h 29mn
Bit rate                         : 1 488 Kbps
Width                            : 720 pixels
Height                           : 304 pixels
Display aspect ratio             : 2.35:1
Frame rate                       : 23.976 fps
Color space                      : YUV
Chroma subsampling               : 4:2:0
Bit depth                        : 8 bits
Scan type                        : Progressive
Compression mode                 : Lossy
Bits/(Pixel*Frame)               : 0.284
Stream size                      : 949 MiB (88%)
Writing library                  : XviD 1.3.0.dev55

Audio
ID                               : 1
Format                           : AC-3
Format/Info                      : Audio Coding 3
Mode extension                   : CM (complete main)
Codec ID                         : 2000
Duration                         : 1h 29mn
Bit rate mode                    : Constant
Bit rate                         : 192 Kbps
Channel(s)                       : 2 channels
Channel positions                : Front: L R
Sampling rate                    : 48.0 KHz
Bit depth                        : 16 bits
Compression mode                 : Lossy
Stream size                      : 122 MiB (11%)
Alignment                        : Split accross interleaves
Interleave, duration             : 96 ms (2.30 video frames)
Interleave, preload duration     : 96 ms
Language                         : English





Note:
Special thanks to our friend.


Encoded and created by thefuzz [XtremE]

  
Enjoy!

Respects to CaptainHomey, Cyanide, CM8, Rx, Pirate666, THC, ELEKTRI4KA and Killerhz